<svg id="visual" viewBox="0 0 960 540" width="960" height="540" xmlns="http://www.w3.org/2000/svg" xmlns:xlink="http://www.w3.org/1999/xlink" version="1.1"><rect x="0" y="0" width="960" height="540" fill="#13293d"></rect><path d="M0 186L22.8 184.5C45.7 183 91.3 180 137 173.8C182.7 167.7 228.3 158.3 274 155.7C319.7 153 365.3 157 411.2 167.7C457 178.3 503 195.7 548.8 195.5C594.7 195.3 640.3 177.7 686 166.3C731.7 155 777.3 150 823 148C868.7 146 914.3 147 937.2 147.5L960 148L960 0L937.2 0C914.3 0 868.7 0 823 0C777.3 0 731.7 0 686 0C640.3 0 594.7 0 548.8 0C503 0 457 0 411.2 0C365.3 0 319.7 0 274 0C228.3 0 182.7 0 137 0C91.3 0 45.7 0 22.8 0L0 0Z" fill="#13293d"></path><path d="M0 126L22.8 129.8C45.7 133.7 91.3 141.3 137 140.2C182.7 139 228.3 129 274 128.3C319.7 127.7 365.3 136.3 411.2 141.5C457 146.7 503 148.3 548.8 147.3C594.7 146.3 640.3 142.7 686 137.5C731.7 132.3 777.3 125.7 823 132.8C868.7 140 914.3 161 937.2 171.5L960 182L960 0L937.2 0C914.3 0 868.7 0 823 0C777.3 0 731.7 0 686 0C640.3 0 594.7 0 548.8 0C503 0 457 0 411.2 0C365.3 0 319.7 0 274 0C228.3 0 182.7 0 137 0C91.3 0 45.7 0 22.8 0L0 0Z" fill="#414f5f"></path><path d="M0 120L22.8 114.5C45.7 109 91.3 98 137 100.5C182.7 103 228.3 119 274 124C319.7 129 365.3 123 411.2 120.3C457 117.7 503 118.3 548.8 119.8C594.7 121.3 640.3 123.7 686 125.8C731.7 128 777.3 130 823 130.3C868.7 130.7 914.3 129.3 937.2 128.7L960 128L960 0L937.2 0C914.3 0 868.7 0 823 0C777.3 0 731.7 0 686 0C640.3 0 594.7 0 548.8 0C503 0 457 0 411.2 0C365.3 0 319.7 0 274 0C228.3 0 182.7 0 137 0C91.3 0 45.7 0 22.8 0L0 0Z" fill="#6f7884"></path><path d="M0 65L22.8 64.8C45.7 64.7 91.3 64.3 137 70C182.7 75.7 228.3 87.3 274 87.7C319.7 88 365.3 77 411.2 77.2C457 77.3 503 88.7 548.8 94.3C594.7 100 640.3 100 686 96C731.7 92 777.3 84 823 81.8C868.7 79.7 914.3 83.3 937.2 85.2L960 87L960 0L937.2 0C914.3 0 868.7 0 823 0C777.3 0 731.7 0 686 0C640.3 0 594.7 0 548.8 0C503 0 457 0 411.2 0C365.3 0 319.7 0 274 0C228.3 0 182.7 0 137 0C91.3 0 45.7 0 22.8 0L0 0Z" fill="#a0a4ab"></path><path d="M0 47L22.8 45.2C45.7 43.3 91.3 39.7 137 37.3C182.7 35 228.3 34 274 36.8C319.7 39.7 365.3 46.3 411.2 46.2C457 46 503 39 548.8 38.3C594.7 37.7 640.3 43.3 686 48.7C731.7 54 777.3 59 823 57.5C868.7 56 914.3 48 937.2 44L960 40L960 0L937.2 0C914.3 0 868.7 0 823 0C777.3 0 731.7 0 686 0C640.3 0 594.7 0 548.8 0C503 0 457 0 411.2 0C365.3 0 319.7 0 274 0C228.3 0 182.7 0 137 0C91.3 0 45.7 0 22.8 0L0 0Z" fill="#d3d3d3"></path></svg>