<svg id="visual" viewBox="0 0 900 100" width="900" height="100" xmlns="http://www.w3.org/2000/svg" xmlns:xlink="http://www.w3.org/1999/xlink" version="1.1"><rect x="0" y="0" width="900" height="100" fill="#d3d3d3"></rect><path d="M0 31L21.5 30.3C43 29.7 86 28.3 128.8 27.5C171.7 26.7 214.3 26.3 257.2 27C300 27.7 343 29.3 385.8 30.8C428.7 32.3 471.3 33.7 514.2 34.7C557 35.7 600 36.3 642.8 35.3C685.7 34.3 728.3 31.7 771.2 31.2C814 30.7 857 32.3 878.5 33.2L900 34L900 0L878.5 0C857 0 814 0 771.2 0C728.3 0 685.7 0 642.8 0C600 0 557 0 514.2 0C471.3 0 428.7 0 385.8 0C343 0 300 0 257.2 0C214.3 0 171.7 0 128.8 0C86 0 43 0 21.5 0L0 0Z" fill="#d3d3d3"></path><path d="M0 24L21.5 24.2C43 24.3 86 24.7 128.8 25.7C171.7 26.7 214.3 28.3 257.2 28.8C300 29.3 343 28.7 385.8 27.7C428.7 26.7 471.3 25.3 514.2 24.8C557 24.3 600 24.7 642.8 25.3C685.7 26 728.3 27 771.2 27.8C814 28.7 857 29.3 878.5 29.7L900 30L900 0L878.5 0C857 0 814 0 771.2 0C728.3 0 685.7 0 642.8 0C600 0 557 0 514.2 0C471.3 0 428.7 0 385.8 0C343 0 300 0 257.2 0C214.3 0 171.7 0 128.8 0C86 0 43 0 21.5 0L0 0Z" fill="#c9c9c9"></path><path d="M0 22L21.5 22.3C43 22.7 86 23.3 128.8 22.3C171.7 21.3 214.3 18.7 257.2 17.8C300 17 343 18 385.8 17.8C428.7 17.7 471.3 16.3 514.2 15.8C557 15.3 600 15.7 642.8 17C685.7 18.3 728.3 20.7 771.2 20.5C814 20.3 857 17.7 878.5 16.3L900 15L900 0L878.5 0C857 0 814 0 771.2 0C728.3 0 685.7 0 642.8 0C600 0 557 0 514.2 0C471.3 0 428.7 0 385.8 0C343 0 300 0 257.2 0C214.3 0 171.7 0 128.8 0C86 0 43 0 21.5 0L0 0Z" fill="#bfbfbf"></path><path d="M0 11L21.5 11C43 11 86 11 128.8 11.3C171.7 11.7 214.3 12.3 257.2 12.7C300 13 343 13 385.8 13.5C428.7 14 471.3 15 514.2 14.7C557 14.3 600 12.7 642.8 11.3C685.7 10 728.3 9 771.2 9.8C814 10.7 857 13.3 878.5 14.7L900 16L900 0L878.5 0C857 0 814 0 771.2 0C728.3 0 685.7 0 642.8 0C600 0 557 0 514.2 0C471.3 0 428.7 0 385.8 0C343 0 300 0 257.2 0C214.3 0 171.7 0 128.8 0C86 0 43 0 21.5 0L0 0Z" fill="#b5b5b5"></path><path d="M0 6L21.5 5.8C43 5.7 86 5.3 128.8 5.3C171.7 5.3 214.3 5.7 257.2 6.3C300 7 343 8 385.8 8.5C428.7 9 471.3 9 514.2 8.2C557 7.3 600 5.7 642.8 5.5C685.7 5.3 728.3 6.7 771.2 7.7C814 8.7 857 9.3 878.5 9.7L900 10L900 0L878.5 0C857 0 814 0 771.2 0C728.3 0 685.7 0 642.8 0C600 0 557 0 514.2 0C471.3 0 428.7 0 385.8 0C343 0 300 0 257.2 0C214.3 0 171.7 0 128.8 0C86 0 43 0 21.5 0L0 0Z" fill="#acacac"></path></svg>